<svg width="20" height="19" viewBox="0 0 20 19" fill="none" xmlns="http://www.w3.org/2000/svg">
<path d="M10.4478 1.02492L12.5656 5.28732C12.784 5.72691 13.2037 6.03183 13.6892 6.10371L18.3974 6.80069C18.8062 6.8612 18.9693 7.36321 18.6742 7.65241L15.2748 10.9837C14.9243 11.3273 14.764 11.8206 14.8456 12.3046L15.6377 16.9978C15.7064 17.4052 15.2794 17.7155 14.9132 17.5242L10.6945 15.3206C10.2594 15.0934 9.74064 15.0934 9.30555 15.3206L5.08685 17.5242C4.72062 17.7155 4.29358 17.4052 4.36234 16.9978L5.15438 12.3046C5.23607 11.8206 5.07577 11.3273 4.72518 10.9837L1.32584 7.65241C1.03073 7.36321 1.19385 6.8612 1.60258 6.80069L6.31078 6.10371C6.79636 6.03183 7.21604 5.72691 7.43445 5.28732L9.55224 1.02492C9.73609 0.654896 10.2639 0.654896 10.4478 1.02492Z" stroke="white"/>
</svg>
