<svg width="121" height="210" viewBox="0 0 121 210" fill="none" xmlns="http://www.w3.org/2000/svg">
<rect x="1" y="1" width="119" height="208" rx="14" fill="url(#paint0_linear_566_3661)"/>
<path d="M31.0635 19.107H35C34.5753 14.2741 30.726 10.4247 25.8931 10V13.9365C28.5644 14.3233 30.6768 16.4357 31.0635 19.107Z" fill="#660EBD"/>
<path d="M18.9343 20.8953H15C15.4247 25.726 19.2741 29.5753 24.1047 30V26.0657C21.4334 25.679 19.321 23.5666 18.9343 20.8953Z" fill="#FFAE05"/>
<path d="M25.8931 26.0657V30C30.726 29.5753 34.5753 25.726 35 20.8953H31.0635C30.6768 23.5666 28.5644 25.679 25.8931 26.0657Z" fill="#B21371"/>
<path d="M15 19.107H18.9343C19.321 16.4357 21.4334 14.3233 24.1047 13.9365V10C19.2741 10.4247 15.4247 14.2741 15 19.107Z" fill="#2CE2B6"/>
<path d="M43.476 170.992C38.7695 170.992 34.3004 170.007 30.1875 168.03C19.4007 162.838 12.413 151.401 10.5134 135.824C8.61382 120.246 12.0229 102.395 20.1215 85.5534C28.2201 68.7119 40.0245 54.9077 53.3809 46.6693C66.7372 38.4479 80.0257 36.768 90.8125 41.9605C101.599 47.1529 108.587 58.5899 110.487 74.1673C112.386 89.7447 108.977 107.596 100.879 124.438C92.7799 141.279 80.9755 155.083 67.6191 163.322C59.3594 168.421 51.1166 171 43.4845 171L43.476 170.992ZM77.524 40.6963C70.1971 40.6963 62.2596 43.1992 54.2798 48.1202C41.2033 56.1889 29.6193 69.747 21.6564 86.3001C13.6935 102.853 10.3438 120.365 12.201 135.628C14.0327 150.612 20.6812 161.574 30.9253 166.512C41.1694 171.441 53.8812 169.795 66.7287 161.871C79.8052 153.802 91.3892 140.244 99.3436 123.691C107.298 107.146 110.656 89.6259 108.799 74.3625C106.967 59.379 100.319 48.4086 90.0747 43.4792C86.1993 41.6126 81.9761 40.6878 77.524 40.6878V40.6963Z" fill="url(#paint1_linear_566_3661)"/>
<path d="M75.159 102.768H85.0003C83.9385 90.6852 74.3152 81.0618 62.2329 80V89.8413C68.9111 90.8081 74.1922 96.0893 75.159 102.768Z" fill="#660EBD"/>
<path d="M44.8357 107.238H35C36.0618 119.315 45.6851 128.938 57.7618 130V120.164C51.0836 119.197 45.8025 113.916 44.8357 107.238Z" fill="#FFAE05"/>
<path d="M62.2329 120.164V130C74.3152 128.938 83.9385 119.315 85.0003 107.238H75.159C74.1922 113.916 68.9111 119.197 62.2329 120.164Z" fill="#B21371"/>
<path d="M35 102.767H44.8357C45.8025 96.0893 51.0836 90.8081 57.7618 89.8413V80C45.6851 81.0618 36.0618 90.6852 35 102.767Z" fill="#2CE2B6"/>
<path d="M102.064 189.107H106C105.575 184.274 101.726 180.425 96.8931 180V183.937C99.5644 184.323 101.677 186.436 102.064 189.107Z" fill="#660EBD"/>
<path d="M89.9343 190.895H86C86.4247 195.726 90.2741 199.575 95.1047 200V196.066C92.4334 195.679 90.321 193.567 89.9343 190.895Z" fill="#FFAE05"/>
<path d="M96.8931 196.066V200C101.726 199.575 105.575 195.726 106 190.895H102.064C101.677 193.567 99.5644 195.679 96.8931 196.066Z" fill="#B21371"/>
<path d="M86 189.107H89.9343C90.321 186.436 92.4334 184.323 95.1047 183.937V180C90.2741 180.425 86.4247 184.274 86 189.107Z" fill="#2CE2B6"/>
<rect x="1" y="1" width="119" height="208" rx="14" stroke="url(#paint2_linear_566_3661)" stroke-width="2"/>
<defs>
<linearGradient id="paint0_linear_566_3661" x1="60.5" y1="0" x2="60.5" y2="210" gradientUnits="userSpaceOnUse">
<stop stop-color="#1C1937"/>
<stop offset="1" stop-color="#141128"/>
</linearGradient>
<linearGradient id="paint1_linear_566_3661" x1="20.3759" y1="84.3571" x2="105.475" y2="128.094" gradientUnits="userSpaceOnUse">
<stop offset="0.03" stop-color="#0ADDAA"/>
<stop offset="0.52" stop-color="#660EBD"/>
<stop offset="1" stop-color="#BD0E62"/>
</linearGradient>
<linearGradient id="paint2_linear_566_3661" x1="60.5" y1="0" x2="60.5" y2="210" gradientUnits="userSpaceOnUse">
<stop stop-color="#362968"/>
<stop offset="1" stop-opacity="0"/>
</linearGradient>
</defs>
</svg>
