<svg width="25" height="25" viewBox="0 0 25 25" fill="none" xmlns="http://www.w3.org/2000/svg">
<path d="M24.3067 12.45L15.7967 7.69C16.5067 6.88 16.9267 5.79 16.9267 4.6C16.9267 2.07 15.0167 0 12.6567 0C10.2967 0 8.39673 2.06 8.39673 4.6C8.39673 5.79 8.81673 6.88 9.51673 7.69L1.01673 12.45C0.786729 12.58 0.646729 12.83 0.646729 13.1V17.9C0.646729 18.18 0.786729 18.43 1.01673 18.55L7.80673 22.36L9.15673 23.11C10.2467 23.73 11.4667 24.04 12.6667 24.04C13.8667 24.04 15.0867 23.73 16.1767 23.11L17.2967 22.48L24.3167 18.55C24.5467 18.43 24.6867 18.18 24.6867 17.9V13.1C24.6867 12.83 24.5467 12.58 24.3167 12.45H24.3067ZM12.6667 1.47C14.2667 1.47 15.5767 2.87 15.5767 4.59C15.5767 5.43 15.2667 6.2 14.7567 6.76C14.7067 6.83 14.6367 6.91 14.5567 6.98C14.2267 7.26 13.8467 7.5 13.4067 7.61C13.2467 7.65 13.0667 7.68 12.8867 7.7C12.8167 7.71 12.7367 7.71 12.6667 7.71C12.5967 7.71 12.5167 7.71 12.4467 7.7C12.2667 7.69 12.1067 7.66 11.9367 7.61C11.4967 7.49 11.1067 7.27 10.7767 6.98C10.7067 6.91 10.6567 6.83 10.5867 6.77C10.0767 6.21 9.76673 5.43 9.76673 4.59C9.76673 2.87 11.0667 1.47 12.6567 1.47H12.6667ZM13.4067 9.11V12.73C13.4067 13.04 13.1767 13.29 12.8867 13.29H12.4667C12.1767 13.29 11.9467 13.04 11.9467 12.73V9.11C12.1767 9.15 12.4267 9.18 12.6667 9.18C12.9267 9.18 13.1767 9.15 13.4067 9.11ZM10.5767 8.74V12.73C10.5767 13.85 11.4267 14.76 12.4567 14.76H12.8767C13.9167 14.76 14.7567 13.85 14.7567 12.73V8.75L22.4967 13.08L19.7067 14.66L18.2367 15.48L15.5367 17C13.7367 18 11.5767 18 9.77673 17L7.07673 15.48L5.60673 14.66L2.81673 13.08L10.5767 8.74ZM23.3167 17.44L22.5267 17.88L16.6667 21.16L15.5467 21.78C13.7467 22.8 11.5867 22.8 9.78673 21.78L8.43673 21.03L2.80673 17.88L2.01673 17.44V14.3L4.13673 15.48L5.60673 16.3L9.15673 18.29C10.2467 18.91 11.4667 19.22 12.6667 19.22C13.8667 19.22 15.0867 18.91 16.1767 18.29L19.7267 16.3L21.1967 15.48L23.3167 14.3V17.44Z" fill="#0ADDAA"/>
<path d="M8.00682 13.12C8.00682 13.64 7.37682 14.03 6.61682 14.03C5.85682 14.03 5.23682 13.63 5.23682 13.12C5.23682 12.61 5.86682 12.21 6.61682 12.21C7.36682 12.21 8.00682 12.62 8.00682 13.12Z" fill="#0ADDAA"/>
</svg>
