<svg width="25" height="25" viewBox="0 0 25 25" fill="none" xmlns="http://www.w3.org/2000/svg">
<path d="M24.3067 12.49L15.7967 7.73004C16.5067 6.92004 16.9267 5.83004 16.9267 4.64004C16.9267 2.11004 15.0167 0.0400391 12.6567 0.0400391C10.2967 0.0400391 8.39673 2.10004 8.39673 4.64004C8.39673 5.83004 8.81673 6.92004 9.51673 7.73004L1.01673 12.49C0.786729 12.62 0.646729 12.87 0.646729 13.14V17.94C0.646729 18.22 0.786729 18.47 1.01673 18.59L7.80673 22.4L9.15673 23.15C10.2467 23.77 11.4667 24.08 12.6667 24.08C13.8667 24.08 15.0867 23.77 16.1767 23.15L17.2967 22.52L24.3167 18.59C24.5467 18.47 24.6867 18.22 24.6867 17.94V13.14C24.6867 12.87 24.5467 12.62 24.3167 12.49H24.3067ZM12.6667 1.51004C14.2667 1.51004 15.5767 2.91004 15.5767 4.63004C15.5767 5.47004 15.2667 6.24004 14.7567 6.80004C14.7067 6.87004 14.6367 6.95004 14.5567 7.02004C14.2267 7.30004 13.8467 7.54004 13.4067 7.65004C13.2467 7.69004 13.0667 7.72004 12.8867 7.74004C12.8167 7.75004 12.7367 7.75004 12.6667 7.75004C12.5967 7.75004 12.5167 7.75004 12.4467 7.74004C12.2667 7.73004 12.1067 7.70004 11.9367 7.65004C11.4967 7.53004 11.1067 7.31004 10.7767 7.02004C10.7067 6.95004 10.6567 6.87004 10.5867 6.81004C10.0767 6.25004 9.76673 5.47004 9.76673 4.63004C9.76673 2.91004 11.0667 1.51004 12.6567 1.51004H12.6667ZM13.4067 9.15004V12.77C13.4067 13.08 13.1767 13.33 12.8867 13.33H12.4667C12.1767 13.33 11.9467 13.08 11.9467 12.77V9.15004C12.1767 9.19004 12.4267 9.22004 12.6667 9.22004C12.9267 9.22004 13.1767 9.19004 13.4067 9.15004ZM10.5767 8.78004V12.77C10.5767 13.89 11.4267 14.8 12.4567 14.8H12.8767C13.9167 14.8 14.7567 13.89 14.7567 12.77V8.79004L22.4967 13.12L19.7067 14.7L18.2367 15.52L15.5367 17.04C13.7367 18.04 11.5767 18.04 9.77673 17.04L7.07673 15.52L5.60673 14.7L2.81673 13.12L10.5767 8.78004ZM23.3167 17.48L22.5267 17.92L16.6667 21.2L15.5467 21.82C13.7467 22.84 11.5867 22.84 9.78673 21.82L8.43673 21.07L2.80673 17.92L2.01673 17.48V14.34L4.13673 15.52L5.60673 16.34L9.15673 18.33C10.2467 18.95 11.4667 19.26 12.6667 19.26C13.8667 19.26 15.0867 18.95 16.1767 18.33L19.7267 16.34L21.1967 15.52L23.3167 14.34V17.48Z" fill="#635776"/>
<path d="M8.00682 13.16C8.00682 13.68 7.37682 14.07 6.61682 14.07C5.85682 14.07 5.23682 13.67 5.23682 13.16C5.23682 12.65 5.86682 12.25 6.61682 12.25C7.36682 12.25 8.00682 12.66 8.00682 13.16Z" fill="#635776"/>
</svg>
