<svg width="24" height="24" viewBox="0 0 24 24" fill="none" xmlns="http://www.w3.org/2000/svg">
<path d="M2.49839 0.0800781H3.75839V6.38008H2.31839V1.60008L1.19839 1.91008L0.848389 0.680078L2.49839 0.0900781V0.0800781Z" fill="#BD0E62"/>
<path d="M22.5783 4.22998H9.7683C9.0683 4.22998 8.5083 3.77998 8.5083 3.22998C8.5083 2.67998 9.0683 2.22998 9.7683 2.22998H22.5783C23.2783 2.22998 23.8383 2.67998 23.8383 3.22998C23.8383 3.77998 23.2783 4.22998 22.5783 4.22998Z" fill="#BD0E62"/>
<path d="M0.908369 14.7901V13.7501L3.01837 11.5501C3.44837 11.1101 3.65837 10.7401 3.65837 10.4301C3.65837 10.2301 3.59837 10.0701 3.47837 9.95011C3.35837 9.83011 3.18837 9.77011 2.97837 9.77011C2.55837 9.77011 2.24837 10.0001 2.04837 10.4501L0.828369 9.74011C1.01837 9.29011 1.30837 8.95011 1.68837 8.71011C2.06837 8.48011 2.48837 8.36011 2.94837 8.36011C3.53837 8.36011 4.03837 8.54011 4.45837 8.90011C4.87837 9.26011 5.08837 9.75011 5.08837 10.3601C5.08837 11.0201 4.75837 11.6801 4.10837 12.3401L3.05837 13.3901H5.17837V14.7801H0.908369V14.7901Z" fill="#BD0E62"/>
<path d="M22.5783 12.5801H9.7683C9.0683 12.5801 8.5083 12.1301 8.5083 11.5801C8.5083 11.0301 9.0683 10.5801 9.7683 10.5801H22.5783C23.2783 10.5801 23.8383 11.0301 23.8383 11.5801C23.8383 12.1301 23.2783 12.5801 22.5783 12.5801Z" fill="#BD0E62"/>
<path d="M4.00838 19.27C4.40838 19.41 4.73838 19.63 4.97838 19.94C5.22838 20.25 5.34838 20.61 5.34838 21.03C5.34838 21.69 5.12838 22.21 4.67838 22.58C4.23838 22.95 3.68838 23.14 3.04838 23.14C2.54838 23.14 2.10838 23.03 1.70838 22.8C1.31838 22.57 1.02838 22.24 0.838379 21.79L2.07838 21.07C2.23838 21.51 2.55838 21.74 3.03838 21.74C3.31838 21.74 3.53838 21.67 3.67838 21.54C3.81838 21.41 3.89838 21.24 3.89838 21.04C3.89838 20.84 3.82838 20.67 3.67838 20.54C3.52838 20.41 3.31838 20.34 3.03838 20.34H2.73838L2.18838 19.52L3.32838 18.07H1.04838V16.72H5.09838V17.89L4.00838 19.28V19.27Z" fill="#BD0E62"/>
<path d="M22.5783 20.9302H9.7683C9.0683 20.9302 8.5083 20.4802 8.5083 19.9302C8.5083 19.3802 9.0683 18.9302 9.7683 18.9302H22.5783C23.2783 18.9302 23.8383 19.3802 23.8383 19.9302C23.8383 20.4802 23.2783 20.9302 22.5783 20.9302Z" fill="#BD0E62"/>
</svg>
