<svg width="24" height="24" viewBox="0 0 24 24" fill="none" xmlns="http://www.w3.org/2000/svg">
<path d="M2.49839 0.0400391H3.75839V6.34004H2.31839V1.56004L1.19839 1.87004L0.848389 0.640039L2.49839 0.0500391V0.0400391Z" fill="#635776"/>
<path d="M22.5783 4.18994H9.7683C9.0683 4.18994 8.5083 3.73994 8.5083 3.18994C8.5083 2.63994 9.0683 2.18994 9.7683 2.18994H22.5783C23.2783 2.18994 23.8383 2.63994 23.8383 3.18994C23.8383 3.73994 23.2783 4.18994 22.5783 4.18994Z" fill="#635776"/>
<path d="M0.908369 14.7501V13.7101L3.01837 11.5101C3.44837 11.0701 3.65837 10.7001 3.65837 10.3901C3.65837 10.1901 3.59837 10.0301 3.47837 9.91007C3.35837 9.79007 3.18837 9.73007 2.97837 9.73007C2.55837 9.73007 2.24837 9.96007 2.04837 10.4101L0.828369 9.70007C1.01837 9.25007 1.30837 8.91007 1.68837 8.67007C2.06837 8.44007 2.48837 8.32007 2.94837 8.32007C3.53837 8.32007 4.03837 8.50007 4.45837 8.86007C4.87837 9.22007 5.08837 9.71007 5.08837 10.3201C5.08837 10.9801 4.75837 11.6401 4.10837 12.3001L3.05837 13.3501H5.17837V14.7401H0.908369V14.7501Z" fill="#635776"/>
<path d="M22.5783 12.54H9.7683C9.0683 12.54 8.5083 12.09 8.5083 11.54C8.5083 10.99 9.0683 10.54 9.7683 10.54H22.5783C23.2783 10.54 23.8383 10.99 23.8383 11.54C23.8383 12.09 23.2783 12.54 22.5783 12.54Z" fill="#635776"/>
<path d="M4.00838 19.2299C4.40838 19.3699 4.73838 19.5899 4.97838 19.8999C5.22838 20.2099 5.34838 20.5699 5.34838 20.9899C5.34838 21.6499 5.12838 22.1699 4.67838 22.5399C4.23838 22.9099 3.68838 23.0999 3.04838 23.0999C2.54838 23.0999 2.10838 22.9899 1.70838 22.7599C1.31838 22.5299 1.02838 22.1999 0.838379 21.7499L2.07838 21.0299C2.23838 21.4699 2.55838 21.6999 3.03838 21.6999C3.31838 21.6999 3.53838 21.6299 3.67838 21.4999C3.81838 21.3699 3.89838 21.1999 3.89838 20.9999C3.89838 20.7999 3.82838 20.6299 3.67838 20.4999C3.52838 20.3699 3.31838 20.2999 3.03838 20.2999H2.73838L2.18838 19.4799L3.32838 18.0299H1.04838V16.6799H5.09838V17.8499L4.00838 19.2399V19.2299Z" fill="#635776"/>
<path d="M22.5783 20.8901H9.7683C9.0683 20.8901 8.5083 20.4401 8.5083 19.8901C8.5083 19.3401 9.0683 18.8901 9.7683 18.8901H22.5783C23.2783 18.8901 23.8383 19.3401 23.8383 19.8901C23.8383 20.4401 23.2783 20.8901 22.5783 20.8901Z" fill="#635776"/>
</svg>
